<?xml version="1.0" encoding="UTF-8" standalone="no"?>
<!-- Created with Inkscape (http://www.inkscape.org/) -->

<svg
   version="1.1"
   id="svg2"
   width="323.88342"
   height="317.39291"
   viewBox="0 0 323.88342 317.39291"
   sodipodi:docname="sloth_branch.ai"
   xmlns:inkscape="http://www.inkscape.org/namespaces/inkscape"
   xmlns:sodipodi="http://sodipodi.sourceforge.net/DTD/sodipodi-0.dtd"
   xmlns="http://www.w3.org/2000/svg"
   xmlns:svg="http://www.w3.org/2000/svg">
  <defs
     id="defs6">
    <clipPath
       clipPathUnits="userSpaceOnUse"
       id="clipPath18">
      <path
         d="M 0,472.416 H 472.416 V 0 H 0 Z"
         id="path16" />
    </clipPath>
    <clipPath
       clipPathUnits="userSpaceOnUse"
       id="clipPath42">
      <path
         d="M 0,472.416 H 472.416 V 0 H 0 Z"
         id="path40" />
    </clipPath>
    <clipPath
       clipPathUnits="userSpaceOnUse"
       id="clipPath58">
      <path
         d="M 0,472.416 H 472.416 V 0 H 0 Z"
         id="path56" />
    </clipPath>
    <clipPath
       clipPathUnits="userSpaceOnUse"
       id="clipPath366">
      <path
         d="M 0,472.416 H 472.416 V 0 H 0 Z"
         id="path364" />
    </clipPath>
    <clipPath
       clipPathUnits="userSpaceOnUse"
       id="clipPath386">
      <path
         d="m 262.565,248.955 c 6.308,-15.921 11.514,-28.634 9.428,-32.807 v 0 c -1.034,-2.067 -6.482,-4.786 -14.095,-6.054 v 0 c 25.87,-15.046 47.654,-42.838 53.876,-72.634 v 0 c 12.225,9.373 22.417,22.678 28.891,41.143 v 0 c 6.106,17.411 6.52,40.737 -32.877,84.005 v 0 c -16.102,-0.155 -32.175,-4.019 -45.223,-13.653"
         id="path384" />
    </clipPath>
    <clipPath
       clipPathUnits="userSpaceOnUse"
       id="clipPath402">
      <path
         d="M 0,472.416 H 472.416 V 0 H 0 Z"
         id="path400" />
    </clipPath>
    <clipPath
       clipPathUnits="userSpaceOnUse"
       id="clipPath414">
      <path
         d="M 0,472.416 H 472.416 V 0 H 0 Z"
         id="path412" />
    </clipPath>
    <clipPath
       clipPathUnits="userSpaceOnUse"
       id="clipPath434">
      <path
         d="m 173.341,291.533 c -19.685,-0.007 -44.574,-12.205 -52.971,-57.952 v 0 c 9.541,28.359 57.587,42.179 69.539,27.901 v 0 c 3.36,15.738 1.653,30.051 -16.553,30.051 v 0 c -0.005,0 -0.01,0 -0.015,0"
         id="path432" />
    </clipPath>
    <clipPath
       clipPathUnits="userSpaceOnUse"
       id="clipPath446">
      <path
         d="M 0,472.416 H 472.416 V 0 H 0 Z"
         id="path444" />
    </clipPath>
  </defs>
  <sodipodi:namedview
     id="namedview4"
     pagecolor="#ffffff"
     bordercolor="#666666"
     borderopacity="1.0"
     inkscape:showpageshadow="2"
     inkscape:pageopacity="0.0"
     inkscape:pagecheckerboard="0"
     inkscape:deskcolor="#d1d1d1"
     showgrid="false" />
  <g
     id="g10"
     inkscape:groupmode="layer"
     inkscape:label="Page 1"
     transform="matrix(1.3333333,0,0,-1.3333333,-153.00172,473.63312)">
    <g
       id="g12">
      <g
         id="g14"
         clip-path="url(#clipPath18)">
        <g
           id="g20"
           transform="translate(294.3222,196.892)">
          <path
             d="m 0,0 c 3.923,18.887 10.635,57.503 -10.033,131.711 -1.838,6.6 12.237,9.504 18.178,7.307 15.817,-5.85 53.878,-94.482 36.318,-145.508"
             style="fill:#7c5346;fill-opacity:1;fill-rule:nonzero;stroke:none"
             id="path22" />
        </g>
        <g
           id="g24"
           transform="translate(297.6424,258.5243)">
          <path
             d="m 0,0 c 2.607,-30.634 -0.889,-49.928 -3.32,-61.632 l 44.463,-6.49 c 6.344,18.435 5.426,41.779 0.922,64.355 C 28.616,1.358 14.134,3.325 0,0"
             style="fill:#931935;fill-opacity:1;fill-rule:nonzero;stroke:none"
             id="path26" />
        </g>
        <g
           id="g28"
           transform="translate(294.3222,196.892)">
          <path
             d="m 0,0 c 3.923,18.887 10.635,57.503 -10.033,131.711 -1.838,6.6 12.237,9.504 18.178,7.307 15.817,-5.85 53.878,-94.482 36.318,-145.508"
             style="fill:none;stroke:#231f20;stroke-width:1;stroke-linecap:round;stroke-linejoin:round;stroke-miterlimit:10;stroke-dasharray:none;stroke-opacity:1"
             id="path30" />
        </g>
        <g
           id="g32"
           transform="translate(215.9835,198.2986)">
          <path
             d="m 0,0 c -5.773,18.406 -19.409,56.909 -6.189,132.8 1.175,6.749 -14.623,12.398 -20.317,9.623 -15.16,-7.387 -39.622,-104.246 -17.096,-153.283"
             style="fill:#7c5346;fill-opacity:1;fill-rule:nonzero;stroke:#231f20;stroke-width:1;stroke-linecap:round;stroke-linejoin:round;stroke-miterlimit:10;stroke-dasharray:none;stroke-opacity:1"
             id="path34" />
        </g>
      </g>
    </g>
    <g
       id="g36">
      <g
         id="g38"
         clip-path="url(#clipPath42)">
        <g
           id="g44"
           transform="translate(328.0181,344.8655)">
          <path
             d="m 0,0 c -3.317,-0.702 -23.947,-32.124 -90.6,-27.134 -35.954,2.692 -58.908,25.259 -68.867,36.259 -1.627,1.798 -4.544,0.057 -3.75,-2.235 2.389,-6.895 6.676,-14.459 6.676,-14.459 -9.98,2.891 -15.113,7.881 -17.821,7.168 -3.921,-0.356 -7.129,-17.751 1.425,-23.168 20.495,-11.406 54.132,-19.618 83.406,-20.674 55.039,-1.985 101.483,12.697 104.05,16.906 C 19.182,-19.692 6.529,1.381 0,0"
             style="fill:#5e8d58;fill-opacity:1;fill-rule:nonzero;stroke:none"
             id="path46" />
        </g>
        <g
           id="g48"
           transform="translate(328.0181,344.8655)">
          <path
             d="m 0,0 c -3.317,-0.702 -23.947,-32.124 -90.6,-27.134 -35.954,2.692 -58.908,25.259 -68.867,36.259 -1.627,1.798 -4.544,0.057 -3.75,-2.235 2.389,-6.895 6.676,-14.459 6.676,-14.459 -9.98,2.891 -15.113,7.881 -17.821,7.168 -3.921,-0.356 -7.129,-17.751 1.425,-23.168 20.495,-11.406 54.132,-19.618 83.406,-20.674 55.039,-1.985 101.483,12.697 104.05,16.906 C 19.182,-19.692 6.529,1.381 0,0 Z"
             style="fill:none;stroke:#231f20;stroke-width:1;stroke-linecap:butt;stroke-linejoin:miter;stroke-miterlimit:10;stroke-dasharray:none;stroke-opacity:1"
             id="path50" />
        </g>
      </g>
    </g>
    <g
       id="g52">
      <g
         id="g54"
         clip-path="url(#clipPath58)">
        <g
           id="g60"
           transform="translate(331.6359,164.5833)">
          <path
             d="m 0,0 c -5.657,-0.724 -3.436,28.506 6.891,38.495 7.248,7.01 13.546,10.74 16.693,5.941 C 30.713,33.564 17.168,2.198 0,0"
             style="fill:#ce805b;fill-opacity:1;fill-rule:nonzero;stroke:none"
             id="path62" />
        </g>
        <g
           id="g64"
           transform="translate(331.6359,164.5833)">
          <path
             d="m 0,0 c -5.657,-0.724 -3.436,28.506 6.891,38.495 7.248,7.01 13.546,10.74 16.693,5.941 C 30.713,33.564 17.168,2.198 0,0 Z"
             style="fill:none;stroke:#231f20;stroke-width:1;stroke-linecap:round;stroke-linejoin:round;stroke-miterlimit:10;stroke-dasharray:none;stroke-opacity:1"
             id="path66" />
        </g>
        <g
           id="g68"
           transform="translate(206.1706,233.4942)">
          <path
             d="m 0,0 c -4.979,7.787 -13.222,24.162 -21.188,32.733 -18,19.366 -66.297,7.663 -66.832,-33.684 -0.197,-15.228 20.772,-100.886 102.515,-113.004 41.692,-6.181 99.486,0.562 120,59.064 6.416,18.297 6.55,43.127 -39.208,90.772 -23.049,24 -32.655,35.206 -30.535,48.891 C 66.713,97.426 42.653,97.248 40.337,86.198 33.091,51.642 70.812,-7.366 65.822,-17.347 62.812,-23.366 22.337,-34.931 0,0"
             style="fill:#ce805b;fill-opacity:1;fill-rule:nonzero;stroke:none"
             id="path70" />
        </g>
        <g
           id="g72"
           transform="translate(179.1098,193.5734)">
          <path
             d="M 0,0 C 34.902,-8.079 105.292,-17.806 93.341,25.514 93.41,24.291 93.238,23.284 92.883,22.574 89.873,16.555 49.397,4.99 27.061,39.921 24.922,43.266 22.385,48.492 19.556,54.044 26.586,22.931 13.228,18.386 0,0"
             style="fill:#a35e48;fill-opacity:1;fill-rule:nonzero;stroke:none"
             id="path74" />
        </g>
        <g
           id="g76"
           transform="translate(206.1706,233.4942)">
          <path
             d="M 0,0 C -4.979,7.787 -13.92,26.505 -22.614,34.337 -44.178,53.762 -89.267,33.98 -88.02,-0.059 c 0.635,-17.335 20.772,-101.778 102.515,-113.896 41.692,-6.181 99.486,0.562 120,59.064 6.416,18.297 6.55,43.127 -39.208,90.772 -23.049,24 -32.655,35.206 -30.535,48.891 C 66.713,97.426 42.653,97.248 40.337,86.198 33.091,51.642 70.812,-7.366 65.822,-17.347 62.812,-23.366 22.337,-34.931 0,0 Z"
             style="fill:none;stroke:#231f20;stroke-width:1;stroke-linecap:round;stroke-linejoin:round;stroke-miterlimit:10;stroke-dasharray:none;stroke-opacity:1"
             id="path78" />
        </g>
        <g
           id="g80"
           transform="translate(192.1508,247.9892)">
          <path
             d="M 0,0 C -4.58,9.012 -23.473,26.542 -40.834,2.162 -69.366,2.19 -71.68,-19.981 -62.97,-35.881 c 9.827,-17.941 31.6,-16.58 53.165,-0.868 C 7.983,-23.79 7.366,-14.495 0,0"
             style="fill:#ffe6c7;fill-opacity:1;fill-rule:nonzero;stroke:none"
             id="path82" />
        </g>
        <g
           id="g84"
           transform="translate(186.2661,255.8462)">
          <path
             d="M 0,0 C -5.941,2.376 -20.394,-0.55 -17.008,-12.253 -13.543,-24.228 9.674,-17.231 9.674,-17.231 8.368,-11.735 4.301,-3.156 0,0"
             style="fill:#957d6b;fill-opacity:1;fill-rule:nonzero;stroke:none"
             id="path86" />
        </g>
        <g
           id="g88"
           transform="translate(124.834,224.6369)">
          <path
             d="M 0,0 C 3.089,7.604 12.208,11.844 17.002,6.659 26.507,-3.618 10.243,-20.133 10.243,-20.133 3.933,-14.192 0.861,-7.542 0,0"
             style="fill:#957d6b;fill-opacity:1;fill-rule:nonzero;stroke:none"
             id="path90" />
        </g>
        <g
           id="g92"
           transform="translate(141.8365,224.4993)">
          <path
             d="m 0,0 c 0,-3.293 -2.67,-5.963 -5.963,-5.963 -3.293,0 -5.962,2.67 -5.962,5.963 0,3.293 2.669,5.963 5.962,5.963 C -2.67,5.963 0,3.293 0,0"
             style="fill:#231f20;fill-opacity:1;fill-rule:nonzero;stroke:none"
             id="path94" />
        </g>
        <g
           id="g96"
           transform="translate(141.8365,224.4993)">
          <path
             d="m 0,0 c 0,-3.293 -2.67,-5.963 -5.963,-5.963 -3.293,0 -5.962,2.67 -5.962,5.963 0,3.293 2.669,5.963 5.962,5.963 C -2.67,5.963 0,3.293 0,0 Z"
             style="fill:none;stroke:#231f20;stroke-width:1;stroke-linecap:round;stroke-linejoin:round;stroke-miterlimit:10;stroke-dasharray:none;stroke-opacity:1"
             id="path98" />
        </g>
        <g
           id="g100"
           transform="translate(183.7771,246.7276)">
          <path
             d="m 0,0 c 0,-3.293 -2.67,-5.963 -5.963,-5.963 -3.293,0 -5.962,2.67 -5.962,5.963 0,3.293 2.669,5.963 5.962,5.963 C -2.67,5.963 0,3.293 0,0"
             style="fill:#231f20;fill-opacity:1;fill-rule:nonzero;stroke:none"
             id="path102" />
        </g>
        <g
           id="g104"
           transform="translate(183.7771,246.7276)">
          <path
             d="m 0,0 c 0,-3.293 -2.67,-5.963 -5.963,-5.963 -3.293,0 -5.962,2.67 -5.962,5.963 0,3.293 2.669,5.963 5.962,5.963 C -2.67,5.963 0,3.293 0,0 Z"
             style="fill:none;stroke:#231f20;stroke-width:1;stroke-linecap:round;stroke-linejoin:round;stroke-miterlimit:10;stroke-dasharray:none;stroke-opacity:1"
             id="path106" />
        </g>
        <g
           id="g108"
           transform="translate(149.7349,215.613)">
          <path
             d="M 0,0 C 5.173,-0.306 13.366,3.921 13.257,9.024"
             style="fill:none;stroke:#231f20;stroke-width:3;stroke-linecap:round;stroke-linejoin:round;stroke-miterlimit:10;stroke-dasharray:none;stroke-opacity:1"
             id="path110" />
        </g>
        <g
           id="g112"
           transform="translate(177.8933,231.6526)">
          <path
             d="M 0,0 C -1.295,-3.297 -7.842,-9.802 -14.902,-7.016"
             style="fill:none;stroke:#231f20;stroke-width:3;stroke-linecap:round;stroke-linejoin:round;stroke-miterlimit:10;stroke-dasharray:none;stroke-opacity:1"
             id="path114" />
        </g>
        <g
           id="g116"
           transform="translate(168.8636,235.6328)">
          <path
             d="m 0,0 c 1.064,-2.182 -1.823,-9.2 -5.584,-10.812 -3.327,-1.426 -10.698,0.194 -11.763,2.376 -1.064,2.182 2.238,5.991 7.129,8.377 C -5.327,2.326 -1.064,2.182 0,0"
             style="fill:#231f20;fill-opacity:1;fill-rule:nonzero;stroke:none"
             id="path118" />
        </g>
        <g
           id="g120"
           transform="translate(168.8636,235.6328)">
          <path
             d="m 0,0 c 1.064,-2.182 -1.823,-9.2 -5.584,-10.812 -3.327,-1.426 -10.698,0.194 -11.763,2.376 -1.064,2.182 2.238,5.991 7.129,8.377 C -5.327,2.326 -1.064,2.182 0,0 Z"
             style="fill:none;stroke:#231f20;stroke-width:1;stroke-linecap:round;stroke-linejoin:round;stroke-miterlimit:10;stroke-dasharray:none;stroke-opacity:1"
             id="path122" />
        </g>
        <g
           id="g124"
           transform="translate(206.4995,335.3392)">
          <path
             d="M 0,0 C 4.878,-0.302 8.209,-13.729 4.964,-16.602 1.72,-19.474 0.929,-12.145 -1.84,-7.684 -6.683,0.117 0,0 0,0"
             style="fill:#ffe6c7;fill-opacity:1;fill-rule:nonzero;stroke:none"
             id="path126" />
        </g>
        <g
           id="g128"
           transform="translate(206.4995,335.3392)">
          <path
             d="M 0,0 C 4.878,-0.302 8.209,-13.729 4.964,-16.602 1.72,-19.474 0.929,-12.145 -1.84,-7.684 -6.683,0.117 0,0 0,0 Z"
             style="fill:none;stroke:#231f20;stroke-width:1;stroke-linecap:butt;stroke-linejoin:miter;stroke-miterlimit:10;stroke-dasharray:none;stroke-opacity:1"
             id="path130" />
        </g>
        <g
           id="g132"
           transform="translate(199.5016,337.0751)">
          <path
             d="m 0,0 c 4.835,-0.589 6.852,-14.173 3.337,-16.847 -3.514,-2.673 -3.591,4.682 -5.919,9.293 C -6.652,0.51 0,0 0,0"
             style="fill:#ffe6c7;fill-opacity:1;fill-rule:nonzero;stroke:none"
             id="path134" />
        </g>
        <g
           id="g136"
           transform="translate(199.5016,337.0751)">
          <path
             d="m 0,0 c 4.835,-0.589 6.852,-14.173 3.337,-16.847 -3.514,-2.673 -3.591,4.682 -5.919,9.293 C -6.652,0.51 0,0 0,0 Z"
             style="fill:none;stroke:#231f20;stroke-width:1;stroke-linecap:butt;stroke-linejoin:miter;stroke-miterlimit:10;stroke-dasharray:none;stroke-opacity:1"
             id="path138" />
        </g>
        <g
           id="g140"
           transform="translate(192.9055,338.6164)">
          <path
             d="M 0,0 C 4.809,-0.708 6.272,-14.335 2.651,-16.92 -0.97,-19.506 -0.924,-12.2 -2.887,-7.486 -6.285,0.669 -1.289,0.276 0,0"
             style="fill:#ffe6c7;fill-opacity:1;fill-rule:nonzero;stroke:none"
             id="path142" />
        </g>
        <g
           id="g144"
           transform="translate(192.9055,338.6164)">
          <path
             d="M 0,0 C 4.809,-0.708 6.272,-14.335 2.651,-16.92 -0.97,-19.506 -0.924,-12.2 -2.887,-7.486 -6.285,0.669 -1.289,0.276 0,0 Z"
             style="fill:none;stroke:#231f20;stroke-width:1;stroke-linecap:butt;stroke-linejoin:miter;stroke-miterlimit:10;stroke-dasharray:none;stroke-opacity:1"
             id="path146" />
        </g>
        <g
           id="g148"
           transform="translate(286.7299,331.9508)">
          <path
             d="m 0,0 c -4.893,-0.067 -9.266,-12.681 -6.252,-15.559 3.014,-2.877 4.376,4.055 7.489,8.171 C 6.679,-0.19 0,0 0,0"
             style="fill:#ffe6c7;fill-opacity:1;fill-rule:nonzero;stroke:none"
             id="path150" />
        </g>
        <g
           id="g152"
           transform="translate(286.7299,331.9508)">
          <path
             d="m 0,0 c -4.893,-0.067 -9.266,-12.681 -6.252,-15.559 3.014,-2.877 4.376,4.055 7.489,8.171 C 6.679,-0.19 0,0 0,0 Z"
             style="fill:none;stroke:#231f20;stroke-width:1;stroke-linecap:butt;stroke-linejoin:miter;stroke-miterlimit:10;stroke-dasharray:none;stroke-opacity:1"
             id="path154" />
        </g>
        <g
           id="g156"
           transform="translate(290.7788,333.486)">
          <path
             d="m 0,0 c -4.752,-0.868 -5.257,-13.887 -1.46,-16.199 3.798,-2.312 3.06,4.672 4.868,9.196 C 6.571,0.91 0,0 0,0"
             style="fill:#ffe6c7;fill-opacity:1;fill-rule:nonzero;stroke:none"
             id="path158" />
        </g>
        <g
           id="g160"
           transform="translate(290.7788,333.486)">
          <path
             d="m 0,0 c -4.752,-0.868 -5.257,-13.887 -1.46,-16.199 3.798,-2.312 3.06,4.672 4.868,9.196 C 6.571,0.91 0,0 0,0 Z"
             style="fill:none;stroke:#231f20;stroke-width:1;stroke-linecap:butt;stroke-linejoin:miter;stroke-miterlimit:10;stroke-dasharray:none;stroke-opacity:1"
             id="path162" />
        </g>
        <g
           id="g164"
           transform="translate(297.4124,333.5349)">
          <path
             d="M 0,0 C -4.657,-1.116 -3.917,-14.128 0.091,-16.235 4.1,-18.342 2.879,-11.442 4.069,-6.806 6.127,1.216 1.235,0.381 0,0"
             style="fill:#ffe6c7;fill-opacity:1;fill-rule:nonzero;stroke:none"
             id="path166" />
        </g>
        <g
           id="g168"
           transform="translate(297.4124,333.5349)">
          <path
             d="M 0,0 C -4.657,-1.116 -3.917,-14.128 0.091,-16.235 4.1,-18.342 2.879,-11.442 4.069,-6.806 6.127,1.216 1.235,0.381 0,0 Z"
             style="fill:none;stroke:#231f20;stroke-width:1;stroke-linecap:butt;stroke-linejoin:miter;stroke-miterlimit:10;stroke-dasharray:none;stroke-opacity:1"
             id="path170" />
        </g>
        <g
           id="g172"
           transform="translate(179.1098,193.5734)">
          <path
             d="m 0,0 c 16.071,6.891 30.625,27.013 31.813,54.178 1.071,24.476 0.308,75.243 12.773,80.317 8.166,3.325 23.346,0 21.207,-9.446 -1.861,-8.22 -1.231,-54.16 0.238,-63.742 2.917,-19.03 10.455,-56.792 -6.653,-82.218"
             style="fill:#ce805b;fill-opacity:1;fill-rule:nonzero;stroke:none"
             id="path174" />
        </g>
        <g
           id="g176"
           transform="translate(245.1409,254.8803)">
          <path
             d="m 0,0 c -1.466,9.564 -2.139,54.297 -0.254,63.693 -17.959,-24.889 3.036,-76.535 -16.142,-102.188 1.832,-0.366 10.168,8.455 11.168,10.455 -0.237,-12.831 -4.277,-27.089 -18.297,-41.109 7.544,2.602 13.356,5.296 18.772,11.406 -1.425,-11.524 -6.653,-24.831 -13.663,-33.98 0,0 34.812,10.456 18.416,91.723"
             style="fill:#a35e48;fill-opacity:1;fill-rule:nonzero;stroke:none"
             id="path178" />
        </g>
        <g
           id="g180"
           transform="translate(179.1098,193.5734)">
          <path
             d="m 0,0 c 16.071,6.891 30.625,27.013 31.813,54.178 1.071,24.476 0.308,75.243 12.773,80.317 8.166,3.325 23.346,0 21.207,-9.446 -1.861,-8.22 -1.231,-54.16 0.238,-63.742 2.917,-19.03 10.455,-56.792 -6.653,-82.218"
             style="fill:none;stroke:#231f20;stroke-width:1;stroke-linecap:round;stroke-linejoin:round;stroke-miterlimit:10;stroke-dasharray:none;stroke-opacity:1"
             id="path182" />
        </g>
        <g
           id="g184"
           transform="translate(176.9023,192.6297)">
          <path
             d="M 0,0 C -1.539,-0.202 -3.078,-0.403 -4.617,-0.605"
             style="fill:#5e8d58;fill-opacity:1;fill-rule:nonzero;stroke:#231f20;stroke-width:1;stroke-linecap:round;stroke-linejoin:round;stroke-miterlimit:10;stroke-dasharray:none;stroke-opacity:1"
             id="path186" />
        </g>
        <g
           id="g188"
           transform="translate(169.3024,192.1673)">
          <path
             d="M 0,0 C -0.238,0.039 -0.476,0.077 -0.713,0.116"
             style="fill:#5e8d58;fill-opacity:1;fill-rule:nonzero;stroke:#231f20;stroke-width:1;stroke-linecap:round;stroke-linejoin:round;stroke-miterlimit:10;stroke-dasharray:none;stroke-opacity:1"
             id="path190" />
        </g>
        <g
           id="g192"
           transform="translate(237.0207,170.8816)">
          <path
             d="M 0,0 C -0.665,-0.681 -1.33,-1.363 -1.995,-2.044"
             style="fill:#5e8d58;fill-opacity:1;fill-rule:nonzero;stroke:#231f20;stroke-width:1;stroke-linecap:round;stroke-linejoin:round;stroke-miterlimit:10;stroke-dasharray:none;stroke-opacity:1"
             id="path194" />
        </g>
        <g
           id="g196"
           transform="translate(233.3389,167.0784)">
          <path
             d="M 0,0 C -0.356,-0.238 -0.713,-0.475 -1.069,-0.713"
             style="fill:#5e8d58;fill-opacity:1;fill-rule:nonzero;stroke:#231f20;stroke-width:1;stroke-linecap:round;stroke-linejoin:round;stroke-miterlimit:10;stroke-dasharray:none;stroke-opacity:1"
             id="path198" />
        </g>
        <g
           id="g200"
           transform="translate(141.4748,182.8095)">
          <path
             d="m 0,0 c -0.781,1.54 -1.562,3.08 -2.343,4.62 -0.356,0.701 -1.4,0.959 -2.053,0.538 -0.716,-0.461 -0.918,-1.302 -0.538,-2.052 0.781,-1.54 1.562,-3.08 2.344,-4.62 0.355,-0.701 1.399,-0.959 2.052,-0.538 C 0.178,-1.591 0.38,-0.75 0,0"
             style="fill:#e2977a;fill-opacity:1;fill-rule:nonzero;stroke:none"
             id="path202" />
        </g>
        <g
           id="g204"
           transform="translate(150.1365,173.4713)">
          <path
             d="M 0,0 C -0.114,0.216 -0.229,0.431 -0.343,0.647 -0.495,0.934 -0.807,1.17 -1.118,1.289 -1.799,2.048 -2.48,2.808 -3.161,3.568 -3.409,3.845 -3.859,4.008 -4.222,4.008 -4.59,4.008 -5.029,3.844 -5.283,3.568 -5.545,3.282 -5.74,2.907 -5.722,2.508 -5.704,2.097 -5.558,1.755 -5.283,1.447 l 2.927,-3.265 c 0.238,-0.265 0.707,-0.455 1.061,-0.439 0.339,0.015 0.639,0.114 0.909,0.322 C 0.216,-1.47 0.355,-0.668 0,0"
             style="fill:#e2977a;fill-opacity:1;fill-rule:nonzero;stroke:none"
             id="path206" />
        </g>
        <g
           id="g208"
           transform="translate(151.1341,183.3479)">
          <path
             d="M 0,0 C -0.614,0.877 -1.228,1.755 -1.841,2.632 -2.069,2.957 -2.344,3.213 -2.738,3.321 -3.097,3.42 -3.575,3.375 -3.894,3.17 -4.214,2.963 -4.496,2.656 -4.583,2.273 -4.669,1.898 -4.661,1.445 -4.432,1.118 c 0.614,-0.878 1.228,-1.755 1.842,-2.632 0.227,-0.326 0.502,-0.581 0.896,-0.689 0.359,-0.099 0.837,-0.055 1.156,0.151 0.32,0.206 0.602,0.514 0.689,0.896 C 0.237,-0.781 0.229,-0.328 0,0"
             style="fill:#e2977a;fill-opacity:1;fill-rule:nonzero;stroke:none"
             id="path210" />
        </g>
        <g
           id="g212"
           transform="translate(162.5232,167.6295)">
          <path
             d="M 0,0 C -0.649,0.657 -1.299,1.315 -1.948,1.972 -2.217,2.245 -2.627,2.412 -3.009,2.412 -3.215,2.419 -3.408,2.376 -3.587,2.283 -3.773,2.222 -3.934,2.119 -4.07,1.972 -4.332,1.687 -4.527,1.311 -4.509,0.912 c 0.018,-0.4 0.154,-0.771 0.439,-1.061 l 1.949,-1.972 c 0.269,-0.273 0.678,-0.44 1.06,-0.44 0.207,-0.007 0.4,0.036 0.578,0.129 0.186,0.061 0.347,0.164 0.483,0.311 0.262,0.285 0.457,0.661 0.439,1.06 C 0.421,-0.661 0.286,-0.289 0,0"
             style="fill:#e2977a;fill-opacity:1;fill-rule:nonzero;stroke:none"
             id="path214" />
        </g>
        <g
           id="g216"
           transform="translate(198.8598,133.2045)">
          <path
             d="M 0,0 C -0.05,0.119 -0.101,0.239 -0.151,0.358 -0.285,0.584 -0.464,0.763 -0.689,0.896 -1.753,1.677 -2.816,2.458 -3.879,3.238 -4.174,3.455 -4.698,3.482 -5.035,3.389 -5.383,3.293 -5.76,3.024 -5.931,2.7 -6.115,2.352 -6.207,1.93 -6.083,1.544 -6.032,1.425 -5.982,1.305 -5.931,1.186 -5.798,0.96 -5.619,0.781 -5.393,0.648 c 1.063,-0.781 2.126,-1.561 3.19,-2.342 0.294,-0.216 0.818,-0.244 1.155,-0.151 0.348,0.096 0.725,0.365 0.897,0.689 C 0.033,-0.808 0.125,-0.386 0,0"
             style="fill:#e2977a;fill-opacity:1;fill-rule:nonzero;stroke:none"
             id="path218" />
        </g>
        <g
           id="g220"
           transform="translate(204.1459,137.7939)">
          <path
             d="M 0,0 C -0.223,0.346 -0.513,0.543 -0.896,0.689 -2.092,1.146 -3.287,1.603 -4.482,2.059 -4.825,2.19 -5.333,2.087 -5.638,1.908 -5.949,1.726 -6.246,1.369 -6.327,1.012 -6.415,0.628 -6.396,0.197 -6.176,-0.144 c 0.223,-0.346 0.513,-0.543 0.896,-0.69 1.196,-0.456 2.391,-0.913 3.586,-1.369 0.343,-0.132 0.851,-0.028 1.156,0.151 0.311,0.182 0.608,0.539 0.689,0.896 C 0.239,-0.772 0.22,-0.341 0,0"
             style="fill:#e2977a;fill-opacity:1;fill-rule:nonzero;stroke:none"
             id="path222" />
        </g>
        <g
           id="g224"
           transform="translate(211.4503,129.415)">
          <path
             d="M 0,0 C -0.213,0.331 -0.512,0.579 -0.896,0.689 -1.728,0.927 -2.56,1.165 -3.391,1.402 -3.764,1.508 -4.215,1.446 -4.547,1.251 -4.858,1.069 -5.155,0.712 -5.237,0.355 c -0.087,-0.384 -0.068,-0.815 0.152,-1.156 0.213,-0.331 0.511,-0.58 0.896,-0.69 0.832,-0.237 1.663,-0.475 2.495,-0.712 0.372,-0.107 0.823,-0.044 1.156,0.151 0.311,0.182 0.608,0.539 0.689,0.896 C 0.239,-0.772 0.22,-0.341 0,0"
             style="fill:#e2977a;fill-opacity:1;fill-rule:nonzero;stroke:none"
             id="path226" />
        </g>
        <g
           id="g228"
           transform="translate(221.1588,133.1719)">
          <path
             d="M 0,0 C -0.125,0.387 -0.353,0.665 -0.689,0.896 -0.847,1.005 -1.004,1.113 -1.162,1.221 -1.443,1.415 -1.883,1.456 -2.223,1.388 -2.82,1.561 -3.418,1.734 -4.015,1.907 -4.386,2.015 -4.839,1.95 -5.171,1.756 -5.482,1.574 -5.779,1.217 -5.86,0.86 -5.948,0.476 -5.929,0.045 -5.709,-0.296 c 0.213,-0.331 0.511,-0.578 0.896,-0.689 l 2.968,-0.86 c 0.72,-0.209 1.485,0.195 1.769,0.868 C 0.05,-0.679 0.102,-0.317 0,0"
             style="fill:#e2977a;fill-opacity:1;fill-rule:nonzero;stroke:none"
             id="path230" />
        </g>
        <g
           id="g232"
           transform="translate(203.4811,208.4738)">
          <path
             d="m 0,0 c -0.096,0.348 -0.365,0.725 -0.689,0.896 -0.348,0.184 -0.77,0.277 -1.156,0.152 -0.382,-0.124 -0.677,-0.35 -0.897,-0.69 -0.607,-0.941 -1.215,-1.883 -1.822,-2.825 -0.206,-0.319 -0.25,-0.797 -0.152,-1.156 0.096,-0.348 0.365,-0.725 0.69,-0.896 0.348,-0.184 0.77,-0.276 1.156,-0.151 0.381,0.123 0.677,0.349 0.896,0.689 0.608,0.942 1.215,1.883 1.823,2.825 C 0.054,-0.837 0.099,-0.359 0,0"
             style="fill:#e2977a;fill-opacity:1;fill-rule:nonzero;stroke:none"
             id="path234" />
        </g>
        <g
           id="g236"
           transform="translate(208.8843,215.9807)">
          <path
             d="M 0,0 C -0.182,0.311 -0.539,0.608 -0.896,0.689 -1.28,0.777 -1.711,0.758 -2.052,0.538 -2.385,0.324 -2.628,0.027 -2.742,-0.358 c -0.245,-0.83 -0.49,-1.659 -0.735,-2.489 -0.109,-0.369 -0.041,-0.826 0.152,-1.156 0.182,-0.311 0.539,-0.608 0.896,-0.689 0.384,-0.087 0.815,-0.069 1.156,0.151 0.332,0.214 0.576,0.512 0.689,0.897 0.245,0.829 0.49,1.659 0.735,2.488 C 0.26,-0.787 0.193,-0.33 0,0"
             style="fill:#e2977a;fill-opacity:1;fill-rule:nonzero;stroke:none"
             id="path238" />
        </g>
        <g
           id="g240"
           transform="translate(210.4105,207.4272)">
          <path
             d="M 0,0 C -0.096,0.348 -0.365,0.725 -0.689,0.896 -1.037,1.08 -1.459,1.173 -1.845,1.048 -2.202,0.932 -2.569,0.706 -2.742,0.358 -3.189,-0.547 -3.637,-1.451 -4.084,-2.356 -4.264,-2.72 -4.346,-3.11 -4.235,-3.512 c 0.095,-0.348 0.364,-0.725 0.689,-0.896 0.348,-0.184 0.77,-0.277 1.156,-0.152 0.357,0.116 0.724,0.342 0.896,0.69 0.448,0.905 0.895,1.809 1.343,2.714 C 0.029,-0.792 0.111,-0.402 0,0"
             style="fill:#e2977a;fill-opacity:1;fill-rule:nonzero;stroke:none"
             id="path242" />
        </g>
        <g
           id="g244"
           transform="translate(227.5481,325.854)">
          <path
             d="m 0,0 c -0.096,0.348 -0.365,0.725 -0.689,0.896 -0.348,0.184 -0.77,0.277 -1.156,0.152 -0.386,-0.125 -0.669,-0.353 -0.897,-0.69 -0.6,-0.887 -1.199,-1.774 -1.799,-2.661 -0.21,-0.31 -0.248,-0.805 -0.152,-1.156 0.096,-0.348 0.365,-0.725 0.69,-0.896 0.348,-0.184 0.77,-0.277 1.156,-0.152 0.385,0.125 0.668,0.352 0.896,0.69 l 1.8,2.661 C 0.058,-0.846 0.097,-0.351 0,0"
             style="fill:#e2977a;fill-opacity:1;fill-rule:nonzero;stroke:none"
             id="path246" />
        </g>
        <g
           id="g248"
           transform="translate(231.0069,320.2652)">
          <path
             d="M 0,0 C -0.009,0.2 -0.068,0.386 -0.178,0.558 -0.36,0.869 -0.717,1.166 -1.074,1.247 -1.458,1.335 -1.889,1.316 -2.23,1.096 L -2.534,0.861 C -2.72,0.674 -2.848,0.453 -2.92,0.199 c -0.358,-0.89 -0.715,-1.781 -1.073,-2.671 -0.063,-0.2 -0.072,-0.399 -0.027,-0.598 0.009,-0.2 0.068,-0.386 0.178,-0.558 0.182,-0.311 0.539,-0.608 0.896,-0.689 0.384,-0.088 0.815,-0.069 1.156,0.151 0.101,0.078 0.203,0.156 0.304,0.234 0.186,0.188 0.314,0.408 0.386,0.662 0.357,0.891 0.715,1.781 1.073,2.672 C 0.036,-0.399 0.045,-0.199 0,0"
             style="fill:#e2977a;fill-opacity:1;fill-rule:nonzero;stroke:none"
             id="path250" />
        </g>
        <g
           id="g252"
           transform="translate(223.6485,315.4102)">
          <path
             d="M 0,0 C -0.26,0.26 -0.687,0.456 -1.061,0.439 -1.449,0.422 -1.851,0.295 -2.121,0 c -0.284,-0.309 -0.398,-0.644 -0.44,-1.061 -0.125,-1.247 -0.25,-2.493 -0.375,-3.74 -0.036,-0.36 0.193,-0.815 0.439,-1.061 0.261,-0.26 0.687,-0.456 1.061,-0.439 0.388,0.017 0.79,0.144 1.061,0.439 0.284,0.309 0.397,0.644 0.439,1.061 0.125,1.247 0.25,2.493 0.375,3.74 C 0.475,-0.701 0.246,-0.246 0,0"
             style="fill:#e2977a;fill-opacity:1;fill-rule:nonzero;stroke:none"
             id="path254" />
        </g>
        <g
           id="g256"
           transform="translate(256.3307,324.2725)">
          <path
             d="M 0,0 C -0.06,0.186 -0.164,0.347 -0.31,0.483 L -0.614,0.717 C -0.848,0.853 -1.1,0.921 -1.371,0.922 -1.504,0.904 -1.637,0.886 -1.77,0.869 -2.024,0.797 -2.244,0.669 -2.431,0.483 c -0.395,-0.492 -0.79,-0.985 -1.184,-1.477 -0.147,-0.136 -0.25,-0.297 -0.311,-0.483 -0.094,-0.178 -0.137,-0.371 -0.129,-0.578 -0.008,-0.206 0.035,-0.399 0.129,-0.578 0.061,-0.185 0.164,-0.346 0.311,-0.482 l 0.303,-0.235 c 0.234,-0.135 0.486,-0.204 0.757,-0.205 0.133,0.018 0.266,0.036 0.399,0.054 0.254,0.071 0.475,0.2 0.662,0.386 0.395,0.492 0.789,0.984 1.184,1.476 0.146,0.136 0.25,0.297 0.31,0.483 0.094,0.179 0.137,0.372 0.129,0.578 C 0.137,-0.371 0.094,-0.179 0,0"
             style="fill:#e2977a;fill-opacity:1;fill-rule:nonzero;stroke:none"
             id="path258" />
        </g>
        <g
           id="g260"
           transform="translate(256.1258,317.2533)">
          <path
             d="M 0,0 C -0.182,0.311 -0.539,0.608 -0.896,0.689 -1.28,0.777 -1.711,0.758 -2.052,0.538 -2.372,0.332 -2.656,0.024 -2.742,-0.358 -2.971,-1.379 -3.2,-2.399 -3.429,-3.42 c -0.084,-0.374 -0.064,-0.822 0.151,-1.156 0.218,-0.338 0.512,-0.561 0.896,-0.689 0.268,-0.089 0.613,-0.082 0.884,-0.008 0.269,0.073 0.541,0.232 0.739,0.428 0.408,0.405 0.575,1.016 0.435,1.573 0.158,0.705 0.317,1.411 0.475,2.116 C 0.239,-0.765 0.206,-0.352 0,0"
             style="fill:#e2977a;fill-opacity:1;fill-rule:nonzero;stroke:none"
             id="path262" />
        </g>
        <g
           id="g264"
           transform="translate(262.2278,322.9231)">
          <path
             d="M 0,0 C -0.009,0.2 -0.068,0.385 -0.178,0.558 -0.272,0.732 -0.401,0.873 -0.564,0.979 -0.709,1.111 -0.879,1.201 -1.074,1.247 -1.458,1.334 -1.889,1.316 -2.23,1.096 -2.542,0.895 -2.851,0.579 -2.92,0.199 c -0.118,-0.653 -0.236,-1.307 -0.354,-1.96 -0.062,-0.2 -0.071,-0.399 -0.027,-0.599 0.009,-0.199 0.069,-0.385 0.178,-0.557 0.095,-0.175 0.223,-0.315 0.387,-0.421 0.145,-0.133 0.315,-0.222 0.51,-0.269 0.384,-0.087 0.815,-0.068 1.156,0.152 0.311,0.2 0.62,0.517 0.689,0.896 0.118,0.654 0.236,1.307 0.354,1.961 C 0.036,-0.399 0.045,-0.199 0,0"
             style="fill:#e2977a;fill-opacity:1;fill-rule:nonzero;stroke:none"
             id="path266" />
        </g>
        <g
           id="g268"
           transform="translate(221.1344,280.6649)">
          <path
             d="M 0,0 C -0.025,0.399 -0.15,0.771 -0.439,1.061 -0.7,1.321 -1.126,1.517 -1.5,1.5 -1.888,1.483 -2.29,1.355 -2.561,1.061 -2.82,0.778 -3.025,0.396 -3,0 c 0.057,-0.891 0.113,-1.783 0.17,-2.674 0.025,-0.399 0.15,-0.771 0.439,-1.06 0.26,-0.261 0.687,-0.457 1.061,-0.44 0.388,0.018 0.79,0.145 1.06,0.44 0.26,0.282 0.465,0.664 0.44,1.06 C 0.113,-1.783 0.057,-0.891 0,0"
             style="fill:#e2977a;fill-opacity:1;fill-rule:nonzero;stroke:none"
             id="path270" />
        </g>
        <g
           id="g272"
           transform="translate(225.6762,288.3155)">
          <path
             d="M 0,0 C -0.26,0.26 -0.687,0.456 -1.061,0.439 -1.449,0.422 -1.851,0.294 -2.121,0 -2.4,-0.303 -2.536,-0.647 -2.561,-1.061 c -0.056,-0.95 -0.113,-1.901 -0.17,-2.852 -0.022,-0.37 0.183,-0.804 0.439,-1.06 0.261,-0.26 0.688,-0.456 1.061,-0.44 0.388,0.018 0.79,0.145 1.061,0.44 0.278,0.303 0.415,0.647 0.439,1.06 0.057,0.951 0.114,1.902 0.17,2.852 C 0.461,-0.691 0.256,-0.256 0,0"
             style="fill:#e2977a;fill-opacity:1;fill-rule:nonzero;stroke:none"
             id="path274" />
        </g>
        <g
           id="g276"
           transform="translate(227.6676,269.6117)">
          <path
             d="M 0,0 C -0.023,0.398 -0.152,0.773 -0.439,1.061 -0.699,1.321 -1.126,1.517 -1.5,1.5 -1.888,1.483 -2.29,1.355 -2.561,1.061 -2.821,0.777 -3.023,0.397 -3,0 c 0.048,-0.832 0.096,-1.665 0.143,-2.497 0.023,-0.398 0.152,-0.773 0.44,-1.061 0.26,-0.26 0.687,-0.456 1.06,-0.439 0.388,0.017 0.791,0.145 1.061,0.439 0.261,0.284 0.462,0.664 0.439,1.061 C 0.096,-1.665 0.048,-0.832 0,0"
             style="fill:#e2977a;fill-opacity:1;fill-rule:nonzero;stroke:none"
             id="path278" />
        </g>
        <g
           id="g280"
           transform="translate(275.8424,271.1674)">
          <path
             d="M 0,0 C -0.029,0.15 -0.058,0.299 -0.087,0.449 -0.136,0.705 -0.32,0.966 -0.531,1.159 -0.956,2.057 -1.382,2.955 -1.807,3.853 -1.96,4.176 -2.371,4.451 -2.704,4.542 -3.063,4.641 -3.541,4.596 -3.859,4.391 -4.18,4.185 -4.462,3.877 -4.549,3.495 -4.643,3.082 -4.579,2.721 -4.398,2.339 c 0.552,-1.165 1.104,-2.33 1.656,-3.495 0.147,-0.309 0.569,-0.615 0.897,-0.689 0.335,-0.077 0.658,-0.059 0.976,0.075 0.289,0.122 0.567,0.33 0.718,0.614 C 0.046,-0.783 0.08,-0.414 0,0"
             style="fill:#e2977a;fill-opacity:1;fill-rule:nonzero;stroke:none"
             id="path282" />
        </g>
        <g
           id="g284"
           transform="translate(278.9866,278.2094)">
          <path
             d="M 0,0 C -0.475,0.832 -0.95,1.664 -1.425,2.495 -1.611,2.821 -1.962,3.085 -2.322,3.185 -2.681,3.283 -3.159,3.239 -3.478,3.033 -3.798,2.827 -4.08,2.519 -4.167,2.137 -4.257,1.741 -4.221,1.34 -4.016,0.981 c 0.475,-0.832 0.95,-1.663 1.426,-2.495 0.185,-0.326 0.536,-0.59 0.896,-0.689 0.359,-0.099 0.837,-0.055 1.156,0.151 0.32,0.206 0.602,0.514 0.689,0.896 C 0.241,-0.76 0.205,-0.359 0,0"
             style="fill:#e2977a;fill-opacity:1;fill-rule:nonzero;stroke:none"
             id="path286" />
        </g>
        <g
           id="g288"
           transform="translate(284.5152,268.4097)">
          <path
             d="M 0,0 C -0.297,0.654 -0.594,1.307 -0.891,1.96 -0.985,2.135 -1.114,2.276 -1.277,2.381 -1.422,2.514 -1.592,2.603 -1.788,2.65 -1.987,2.712 -2.186,2.721 -2.386,2.677 -2.585,2.667 -2.771,2.608 -2.943,2.499 -3.264,2.292 -3.546,1.985 -3.633,1.602 -3.651,1.469 -3.668,1.336 -3.686,1.203 c 10e-4,-0.27 0.069,-0.523 0.205,-0.757 0.297,-0.653 0.594,-1.307 0.891,-1.96 0.094,-0.175 0.223,-0.315 0.386,-0.421 0.145,-0.133 0.315,-0.222 0.51,-0.268 0.199,-0.063 0.399,-0.072 0.598,-0.027 0.2,0.009 0.386,0.068 0.558,0.178 0.32,0.206 0.602,0.514 0.689,0.896 0.018,0.133 0.036,0.266 0.054,0.399 C 0.204,-0.486 0.136,-0.234 0,0"
             style="fill:#e2977a;fill-opacity:1;fill-rule:nonzero;stroke:none"
             id="path290" />
        </g>
        <g
           id="g292"
           transform="translate(276.4391,157.5053)">
          <path
             d="M 0,0 C -0.286,0.262 -0.661,0.457 -1.061,0.439 -1.194,0.422 -1.326,0.404 -1.459,0.386 -1.714,0.315 -1.934,0.186 -2.121,0 c -0.773,-0.653 -1.545,-1.307 -2.317,-1.96 -0.146,-0.136 -0.25,-0.297 -0.31,-0.483 -0.094,-0.179 -0.137,-0.372 -0.13,-0.578 0,-0.368 0.164,-0.807 0.44,-1.061 0.286,-0.262 0.661,-0.457 1.06,-0.439 0.133,0.018 0.266,0.036 0.399,0.054 0.254,0.071 0.475,0.199 0.662,0.385 0.772,0.654 1.545,1.307 2.317,1.961 0.146,0.136 0.25,0.296 0.31,0.482 0.094,0.179 0.137,0.372 0.129,0.578 C 0.439,-0.693 0.276,-0.253 0,0"
             style="fill:#e2977a;fill-opacity:1;fill-rule:nonzero;stroke:none"
             id="path294" />
        </g>
        <g
           id="g296"
           transform="translate(277.5785,148.4256)">
          <path
             d="M 0,0 C -0.009,0.2 -0.068,0.386 -0.178,0.558 -0.384,0.878 -0.692,1.16 -1.074,1.247 -1.453,1.333 -1.898,1.322 -2.23,1.096 -2.938,0.614 -3.647,0.132 -4.355,-0.35 c -0.326,-0.222 -0.582,-0.507 -0.689,-0.897 -0.063,-0.199 -0.072,-0.399 -0.027,-0.598 0.009,-0.2 0.068,-0.385 0.178,-0.558 0.206,-0.32 0.514,-0.602 0.896,-0.689 0.379,-0.086 0.824,-0.075 1.156,0.151 0.708,0.482 1.417,0.964 2.125,1.446 0.326,0.222 0.582,0.508 0.689,0.897 C 0.036,-0.399 0.045,-0.199 0,0"
             style="fill:#e2977a;fill-opacity:1;fill-rule:nonzero;stroke:none"
             id="path298" />
        </g>
        <g
           id="g300"
           transform="translate(265.7756,144.7237)">
          <path
             d="M 0,0 C -0.117,0.363 -0.342,0.713 -0.689,0.896 -1.051,1.088 -1.442,1.148 -1.845,1.048 -2.796,0.81 -3.746,0.573 -4.697,0.335 c -0.36,-0.09 -0.71,-0.371 -0.896,-0.689 -0.188,-0.322 -0.268,-0.796 -0.151,-1.156 0.117,-0.363 0.342,-0.713 0.689,-0.897 0.362,-0.191 0.753,-0.252 1.156,-0.151 l 2.851,0.713 c 0.361,0.09 0.711,0.371 0.897,0.689 C 0.037,-0.834 0.117,-0.36 0,0"
             style="fill:#e2977a;fill-opacity:1;fill-rule:nonzero;stroke:none"
             id="path302" />
        </g>
        <g
           id="g304"
           transform="translate(281.128,134.4873)">
          <path
             d="M 0,0 C -0.117,0.363 -0.342,0.713 -0.689,0.896 -1.037,1.08 -1.46,1.174 -1.845,1.048 -2.738,0.755 -3.63,0.462 -4.523,0.169 -4.892,0.048 -5.219,-0.178 -5.419,-0.52 -5.607,-0.841 -5.687,-1.315 -5.57,-1.676 c 0.117,-0.363 0.342,-0.713 0.689,-0.896 0.347,-0.184 0.771,-0.278 1.156,-0.151 0.892,0.292 1.785,0.585 2.677,0.878 0.37,0.121 0.697,0.348 0.897,0.689 C 0.037,-0.834 0.117,-0.36 0,0"
             style="fill:#e2977a;fill-opacity:1;fill-rule:nonzero;stroke:none"
             id="path306" />
        </g>
        <g
           id="g308"
           transform="translate(322.5905,189.7983)">
          <path
             d="m 0,0 c -0.157,0.377 -0.322,0.681 -0.689,0.896 -0.322,0.189 -0.796,0.268 -1.156,0.152 -0.694,-0.225 -1.37,-1.07 -1.048,-1.845 0.219,-0.526 0.384,-1.071 0.486,-1.632 0.01,-0.056 0.019,-0.113 0.028,-0.17 0.013,-0.149 0.028,-0.297 0.036,-0.447 0.014,-0.265 0.015,-0.531 0.002,-0.796 -0.007,-0.151 -0.022,-0.302 -0.033,-0.453 -0.002,-0.019 -10e-4,-0.024 -0.002,-0.038 -0.002,-0.006 -0.002,-0.007 -0.003,-0.015 -0.053,-0.299 -0.112,-0.595 -0.193,-0.888 -0.072,-0.257 -0.161,-0.505 -0.251,-0.755 -10e-4,-0.002 -10e-4,-0.002 -0.002,-0.004 -0.024,-0.053 -0.048,-0.106 -0.073,-0.159 -0.066,-0.137 -0.136,-0.271 -0.209,-0.404 -0.376,-0.689 -0.192,-1.666 0.538,-2.052 0.701,-0.371 1.651,-0.198 2.052,0.538 C 0.814,-5.634 1.074,-2.585 0,0"
             style="fill:#e2977a;fill-opacity:1;fill-rule:nonzero;stroke:none"
             id="path310" />
        </g>
        <g
           id="g312"
           transform="translate(327.4913,181.2932)">
          <path
             d="m 0,0 c -0.809,0.184 -1.602,-0.243 -1.845,-1.048 -0.624,-2.062 -1.248,-4.124 -1.871,-6.187 -0.228,-0.751 0.271,-1.668 1.047,-1.845 0.81,-0.184 1.602,0.243 1.845,1.048 0.624,2.062 1.248,4.124 1.872,6.187 C 1.275,-1.094 0.776,-0.177 0,0"
             style="fill:#e2977a;fill-opacity:1;fill-rule:nonzero;stroke:none"
             id="path314" />
        </g>
        <g
           id="g316"
           transform="translate(330.7737,197.4338)">
          <path
             d="M 0,0 C -0.395,1.664 -0.791,3.327 -1.186,4.991 -1.368,5.755 -2.279,6.282 -3.031,6.038 -3.827,5.781 -4.273,5.012 -4.079,4.193 -3.684,2.53 -3.288,0.866 -2.893,-0.798 -2.711,-1.561 -1.8,-2.089 -1.048,-1.845 -0.252,-1.588 0.195,-0.819 0,0"
             style="fill:#e2977a;fill-opacity:1;fill-rule:nonzero;stroke:none"
             id="path318" />
        </g>
        <g
           id="g320"
           transform="translate(297.6536,227.587)">
          <path
             d="M 0,0 C -0.558,1.424 -1.116,2.849 -1.674,4.273 -1.822,4.649 -2.003,4.958 -2.364,5.169 -2.685,5.357 -3.159,5.437 -3.52,5.321 -3.883,5.203 -4.233,4.978 -4.416,4.631 -4.593,4.296 -4.712,3.844 -4.567,3.475 c 0.558,-1.424 1.116,-2.848 1.674,-4.272 0.147,-0.376 0.329,-0.686 0.69,-0.897 0.321,-0.188 0.795,-0.268 1.155,-0.151 0.363,0.117 0.713,0.342 0.897,0.689 C 0.026,-0.82 0.145,-0.369 0,0"
             style="fill:#e2977a;fill-opacity:1;fill-rule:nonzero;stroke:none"
             id="path322" />
        </g>
        <g
           id="g324"
           transform="translate(295.5874,217.6237)">
          <path
             d="M 0,0 C -0.229,1.427 -0.459,2.854 -0.688,4.281 -0.744,4.629 -1.087,5.007 -1.378,5.178 -1.699,5.366 -2.173,5.445 -2.534,5.329 -2.897,5.211 -3.247,4.986 -3.43,4.639 -3.63,4.261 -3.649,3.904 -3.581,3.484 c 0.229,-1.427 0.459,-2.854 0.688,-4.282 0.056,-0.347 0.399,-0.726 0.69,-0.896 0.321,-0.188 0.795,-0.268 1.155,-0.151 0.363,0.117 0.713,0.342 0.897,0.689 C 0.049,-0.778 0.068,-0.42 0,0"
             style="fill:#e2977a;fill-opacity:1;fill-rule:nonzero;stroke:none"
             id="path326" />
        </g>
        <g
           id="g328"
           transform="translate(301.974,213.4879)">
          <path
             d="m 0,0 c -0.834,-0.037 -1.473,-0.659 -1.5,-1.5 l -0.174,-5.467 c -0.025,-0.785 0.708,-1.536 1.5,-1.5 0.834,0.037 1.473,0.659 1.5,1.5 L 1.5,-1.5 C 1.525,-0.715 0.792,0.035 0,0"
             style="fill:#e2977a;fill-opacity:1;fill-rule:nonzero;stroke:none"
             id="path330" />
        </g>
        <g
           id="g332"
           transform="translate(317.6438,163.1565)">
          <path
             d="m 0,0 c -0.746,0.394 -1.597,0.167 -2.052,-0.538 -0.871,-1.347 -1.742,-2.694 -2.612,-4.041 -0.427,-0.66 -0.156,-1.685 0.538,-2.052 0.746,-0.394 1.597,-0.167 2.052,0.538 0.871,1.347 1.741,2.694 2.612,4.041 C 0.965,-1.392 0.694,-0.367 0,0"
             style="fill:#e2977a;fill-opacity:1;fill-rule:nonzero;stroke:none"
             id="path334" />
        </g>
        <g
           id="g336"
           transform="translate(144.6337,262.393)">
          <path
             d="M 0,0 C -1.1,0.96 -2.201,1.92 -3.301,2.881 -3.604,3.145 -3.95,3.32 -4.362,3.32 -4.73,3.32 -5.169,3.156 -5.423,2.881 -5.685,2.595 -5.88,2.219 -5.862,1.82 c 0.017,-0.382 0.141,-0.8 0.439,-1.061 1.101,-0.96 2.201,-1.92 3.302,-2.88 0.302,-0.264 0.648,-0.44 1.06,-0.44 0.368,0 0.808,0.164 1.061,0.44 0.262,0.286 0.457,0.661 0.439,1.06 C 0.422,-0.679 0.298,-0.26 0,0"
             style="fill:#e2977a;fill-opacity:1;fill-rule:nonzero;stroke:none"
             id="path338" />
        </g>
        <g
           id="g340"
           transform="translate(150.5279,267.6356)">
          <path
             d="m 0,0 c -0.071,0.254 -0.2,0.475 -0.386,0.662 -0.475,0.554 -0.95,1.109 -1.426,1.663 -0.135,0.146 -0.296,0.25 -0.482,0.31 -0.179,0.094 -0.372,0.137 -0.578,0.13 C -3.079,2.772 -3.271,2.729 -3.45,2.635 -3.636,2.575 -3.797,2.471 -3.933,2.325 -4.195,2.039 -4.39,1.664 -4.372,1.265 c 0.018,-0.133 0.036,-0.266 0.053,-0.399 0.072,-0.254 0.2,-0.475 0.386,-0.662 0.475,-0.555 0.951,-1.109 1.426,-1.663 0.136,-0.147 0.297,-0.25 0.483,-0.311 0.178,-0.094 0.371,-0.137 0.578,-0.129 0.206,-0.008 0.399,0.035 0.577,0.129 0.186,0.061 0.347,0.164 0.483,0.311 0.263,0.285 0.457,0.661 0.44,1.06 C 0.036,-0.266 0.018,-0.133 0,0"
             style="fill:#e2977a;fill-opacity:1;fill-rule:nonzero;stroke:none"
             id="path342" />
        </g>
        <g
           id="g344"
           transform="translate(136.6601,255.2656)">
          <path
             d="M 0,0 C -0.141,0.223 -0.328,0.397 -0.56,0.523 -1.175,0.917 -1.789,1.311 -2.404,1.705 -2.576,1.806 -2.76,1.859 -2.956,1.863 -3.154,1.902 -3.351,1.888 -3.546,1.821 -3.746,1.769 -3.919,1.672 -4.063,1.531 -4.223,1.419 -4.348,1.274 -4.436,1.095 -4.605,0.745 -4.683,0.33 -4.551,-0.047 c 0.055,-0.123 0.111,-0.245 0.166,-0.367 0.141,-0.223 0.328,-0.397 0.56,-0.523 0.615,-0.394 1.229,-0.788 1.844,-1.182 0.172,-0.101 0.356,-0.154 0.552,-0.158 0.198,-0.039 0.395,-0.025 0.59,0.042 0.2,0.052 0.372,0.149 0.517,0.29 0.16,0.112 0.285,0.257 0.373,0.436 0.169,0.35 0.247,0.765 0.115,1.142 C 0.111,-0.244 0.055,-0.122 0,0"
             style="fill:#e2977a;fill-opacity:1;fill-rule:nonzero;stroke:none"
             id="path346" />
        </g>
        <g
           id="g348"
           transform="translate(163.0876,268.7034)">
          <path
             d="M 0,0 C -0.867,0.954 -1.734,1.908 -2.602,2.863 -2.853,3.139 -3.296,3.302 -3.662,3.302 -4.03,3.302 -4.47,3.138 -4.723,2.863 -4.985,2.577 -5.18,2.201 -5.162,1.802 -5.144,1.393 -5,1.046 -4.723,0.741 c 0.867,-0.954 1.734,-1.908 2.602,-2.862 0.251,-0.277 0.694,-0.44 1.06,-0.44 0.368,0 0.808,0.164 1.061,0.44 0.262,0.285 0.457,0.661 0.439,1.06 C 0.421,-0.652 0.277,-0.305 0,0"
             style="fill:#e2977a;fill-opacity:1;fill-rule:nonzero;stroke:none"
             id="path350" />
        </g>
        <g
           id="g352"
           transform="translate(131.0623,252.2492)">
          <path
             d="M 0,0 C -0.163,0.349 -0.428,0.658 -0.795,0.804 -1.402,1.046 -2.008,1.288 -2.615,1.53 -2.982,1.677 -3.413,1.689 -3.781,1.536 -3.967,1.467 -4.123,1.358 -4.25,1.211 -4.401,1.085 -4.513,0.929 -4.585,0.741 -4.723,0.373 -4.763,-0.057 -4.591,-0.424 c 0.163,-0.35 0.428,-0.658 0.795,-0.804 0.607,-0.242 1.213,-0.484 1.82,-0.726 0.367,-0.147 0.797,-0.16 1.166,-0.007 0.185,0.07 0.342,0.179 0.469,0.326 0.151,0.126 0.262,0.282 0.335,0.469 C 0.132,-0.797 0.172,-0.367 0,0"
             style="fill:#e2977a;fill-opacity:1;fill-rule:nonzero;stroke:none"
             id="path354" />
        </g>
        <g
           id="g356"
           transform="translate(146.015,257.7806)">
          <path
             d="m 0,0 c 6.149,2.347 14.257,-0.594 12.951,-7.366 -0.97,1.154 -2.481,3.074 -4.753,2.495 3.119,-2.985 1.604,-8.436 1.604,-8.436 C 6.327,-8.792 3.619,-6.788 -1.919,-7.601 -3.82,-7.067 0,0 0,0"
             style="fill:#ce805b;fill-opacity:1;fill-rule:nonzero;stroke:none"
             id="path358" />
        </g>
      </g>
    </g>
    <g
       id="g360">
      <g
         id="g362"
         clip-path="url(#clipPath366)">
        <g
           id="g368"
           transform="translate(312.5841,257.2139)">
          <path
             d="m 0,0 c -16.568,-0.7 -33.153,-6.497 -47.617,-14.323 5.141,-13.032 8.839,-23.115 7.025,-26.743 -1.169,-2.34 -6.142,-7.833 -15.366,-8.792 21.739,-10.753 26.178,-24 28.317,-38.971 2.124,1.07 4.752,5.585 5.159,10.337 2.445,-6.178 4,-24.455 0,-34.455 4.946,1.901 9.336,6.178 10.701,13.069 2.864,-10.021 1.025,-21.422 -10.791,-31.248 21.579,8.406 40.637,23.95 50.653,52.515 C 33.928,-61.938 34.553,-39.839 0,0"
             style="fill:#a35e48;fill-opacity:1;fill-rule:nonzero;stroke:none"
             id="path370" />
        </g>
        <g
           id="g372"
           transform="translate(307.7887,262.6087)">
          <path
             d="m 0,0 c -16.102,-0.156 -32.176,-4.02 -45.223,-13.654 6.307,-15.92 11.513,-28.634 9.427,-32.807 -1.033,-2.066 -6.482,-4.786 -14.095,-6.054 25.871,-15.046 47.654,-42.838 53.877,-72.634 12.225,9.374 22.416,22.678 28.891,41.143 C 38.982,-66.595 39.397,-43.268 0,0"
             style="fill:#ed355d;fill-opacity:1;fill-rule:nonzero;stroke:none"
             id="path374" />
        </g>
        <g
           id="g376"
           transform="translate(272.3549,217.437)">
          <path
             d="m 0,0 c -0.075,-0.484 -0.183,-0.929 -0.363,-1.289 -1.033,-2.066 -6.481,-4.786 -14.094,-6.054 4.626,-2.691 9.403,-6.015 13.702,-9.459 C 1.776,-12.161 2.337,-5.427 0,0"
             style="fill:#af1f3b;fill-opacity:1;fill-rule:nonzero;stroke:none"
             id="path378" />
        </g>
      </g>
    </g>
    <g
       id="g380">
      <g
         id="g382"
         clip-path="url(#clipPath386)">
        <g
           id="g388"
           transform="translate(279.4867,262.6087)">
          <path
             d="M 0,0 C 5.308,-8.501 49.113,-70.72 12.259,-91.907"
             style="fill:none;stroke:#ffe922;stroke-width:3;stroke-linecap:butt;stroke-linejoin:miter;stroke-miterlimit:10;stroke-dasharray:none;stroke-opacity:1"
             id="path390" />
        </g>
        <g
           id="g392"
           transform="translate(289.1434,263.3903)">
          <path
             d="M 0,0 C 5.308,-8.501 50.334,-69.936 10.413,-100.233"
             style="fill:none;stroke:#ffe922;stroke-width:3;stroke-linecap:butt;stroke-linejoin:miter;stroke-miterlimit:10;stroke-dasharray:none;stroke-opacity:1"
             id="path394" />
        </g>
      </g>
    </g>
    <g
       id="g396">
      <g
         id="g398"
         clip-path="url(#clipPath402)">
        <g
           id="g404"
           transform="translate(307.7887,262.6087)">
          <path
             d="m 0,0 c -16.102,-0.156 -32.176,-4.02 -45.223,-13.654 6.307,-15.92 11.513,-28.634 9.427,-32.807 -1.033,-2.066 -6.482,-4.786 -14.095,-6.054 25.871,-15.046 47.654,-42.838 53.877,-72.634 12.225,9.374 22.416,22.678 28.891,41.143 C 38.982,-66.595 39.397,-43.268 0,0 Z"
             style="fill:none;stroke:#231f20;stroke-width:1;stroke-linecap:round;stroke-linejoin:round;stroke-miterlimit:10;stroke-dasharray:none;stroke-opacity:1"
             id="path406" />
        </g>
      </g>
    </g>
    <g
       id="g408">
      <g
         id="g410"
         clip-path="url(#clipPath414)">
        <g
           id="g416"
           transform="translate(119.5965,223.0071)">
          <path
             d="M 0,0 C -4.386,32.527 57.687,56.174 70.41,37.32 61.198,55.708 52.689,59.159 43.932,59.895 33.738,60.751 2.533,54.51 -3.102,33.602 -6.285,21.796 -2.645,9.961 0,0"
             style="fill:#ed355d;fill-opacity:1;fill-rule:nonzero;stroke:none"
             id="path418" />
        </g>
        <g
           id="g420"
           transform="translate(119.5965,223.0071)">
          <path
             d="M 0,0 C -4.386,32.527 57.687,56.174 70.41,37.32 61.198,55.708 52.689,59.159 43.932,59.895 33.738,60.751 2.533,54.51 -3.102,33.602 -6.285,21.796 -2.645,9.961 0,0 Z"
             style="fill:none;stroke:#231f20;stroke-width:1;stroke-linecap:round;stroke-linejoin:round;stroke-miterlimit:10;stroke-dasharray:none;stroke-opacity:1"
             id="path422" />
        </g>
        <g
           id="g424"
           transform="translate(120.3707,233.5818)">
          <path
             d="M 0,0 C 9.541,28.358 56.532,42.178 68.484,27.901 71.845,43.643 70.137,57.959 51.915,57.952 32.231,57.944 8.396,45.746 0,0"
             style="fill:#ffe922;fill-opacity:1;fill-rule:nonzero;stroke:none"
             id="path426" />
        </g>
      </g>
    </g>
    <g
       id="g428">
      <g
         id="g430"
         clip-path="url(#clipPath434)">
        <g
           id="g436"
           transform="translate(123.3191,229.3358)">
          <path
             d="M 0,0 C 8.933,28.358 53.088,41.23 64.279,26.953 67.426,42.695 65.646,58.219 49.137,58.219 30.705,58.219 8.723,44.911 0,0"
             style="fill:#be9f2f;fill-opacity:1;fill-rule:nonzero;stroke:none"
             id="path438" />
        </g>
      </g>
    </g>
    <g
       id="g440">
      <g
         id="g442"
         clip-path="url(#clipPath446)">
        <g
           id="g448"
           transform="translate(120.3707,233.2436)">
          <path
             d="M 0,0 C 9.541,28.358 57.041,42.621 68.993,28.344 72.354,44.087 70.137,58.298 51.915,58.29 32.231,58.282 8.396,45.746 0,0 Z"
             style="fill:none;stroke:#231f20;stroke-width:1;stroke-linecap:round;stroke-linejoin:round;stroke-miterlimit:10;stroke-dasharray:none;stroke-opacity:1"
             id="path450" />
        </g>
      </g>
    </g>
  </g>
</svg>
